<?xml version="1.0" standalone="no"?><!DOCTYPE svg PUBLIC "-//W3C//DTD SVG 1.1//EN" "http://www.w3.org/Graphics/SVG/1.1/DTD/svg11.dtd"><svg t="1553784181487" class="icon" style="" viewBox="0 0 1024 1024" version="1.1" xmlns="http://www.w3.org/2000/svg" p-id="2027" xmlns:xlink="http://www.w3.org/1999/xlink" width="128" height="128"><defs><style type="text/css"></style></defs><path d="M563.029333 591.36c-13.312 12.629333-22.528 20.650667-28.842666 25.6 3.072-16.384 10.922667-48.981333 30.037333-113.152 18.944-63.488 20.650667-74.581333 20.650667-80.042667 0-9.557333-3.925333-17.92-10.922667-23.722666-15.530667-12.8-42.837333-10.24-75.776 8.362666-18.432 10.24-37.888 27.136-59.733333 51.2l-11.434667 12.629334 37.717333 29.184 9.728-9.557334c10.581333-10.24 17.578667-16.896 22.357334-21.333333-28.842667 94.890667-42.837333 153.770667-42.837334 180.224 0 11.946667 3.413333 21.845333 10.410667 29.525333s17.066667 11.776 28.330667 11.776c11.093333 0 23.893333-4.266667 39.424-13.141333 13.994667-8.021333 34.986667-25.258667 64.341333-52.906667l11.946667-11.434666-34.304-33.450667-11.093334 10.24zM922.453333 334.506667c-22.869333-54.272-55.808-102.912-97.621333-144.725334s-90.453333-74.752-144.384-97.621333c-112.298667-47.445333-242.005333-47.445333-354.304 0-54.101333 23.04-102.570667 55.808-144.384 97.621333C139.946667 231.594667 107.008 280.405333 84.309333 334.506667c-23.722667 56.32-35.84 115.882667-35.84 177.322666s12.117333 121.002667 35.669334 177.322667c22.869333 54.101333 55.808 102.912 97.450666 144.725333s90.282667 74.752 144.384 97.621334c56.149333 23.893333 115.712 35.669333 177.152 35.669333s121.002667-11.946667 177.152-35.84c54.101333-22.869333 102.741333-55.808 144.384-97.621333 41.813333-41.813333 74.581333-90.624 97.450667-144.725334 23.722667-56.149333 35.669333-115.712 35.669333-177.322666 0.341333-61.269333-11.605333-120.832-35.328-177.152z m-22.186666 177.493333c0 219.136-178.005333 397.312-396.970667 397.312-218.794667 0-396.8-178.176-396.8-397.312S284.501333 114.517333 503.296 114.517333c218.965333 0 396.970667 178.176 396.970667 397.482667zM551.253333 276.48c-8.533333 9.386667-12.970667 20.992-12.970666 34.133333 0 10.922667 3.584 20.309333 10.410666 27.818667 6.997333 7.509333 16.213333 11.264 26.624 11.264 8.533333 0 20.992-2.56 32.597334-15.36 9.045333-9.728 13.482667-21.333333 13.482666-34.304 0-10.581333-3.584-19.968-10.581333-27.136-15.189333-15.872-43.178667-14.165333-59.562667 3.584z m0 0" p-id="2028"></path></svg>